<?xml version="1.0" encoding="UTF-8" standalone="no"?>
<!-- Created with Inkscape (http://www.inkscape.org/) -->

<svg
   width="164.77135mm"
   height="97.426147mm"
   viewBox="0 0 622.75786 368.22482"
   version="1.1"
   id="svg1"
   inkscape:version="1.3.2 (091e20e, 2023-11-25)"
   sodipodi:docname="VetRA-Logo.svg"
   xmlns:inkscape="http://www.inkscape.org/namespaces/inkscape"
   xmlns:sodipodi="http://sodipodi.sourceforge.net/DTD/sodipodi-0.dtd"
   xmlns="http://www.w3.org/2000/svg"
   xmlns:svg="http://www.w3.org/2000/svg">
  <sodipodi:namedview
     id="namedview1"
     pagecolor="#505050"
     bordercolor="#eeeeee"
     borderopacity="1"
     inkscape:showpageshadow="0"
     inkscape:pageopacity="0"
     inkscape:pagecheckerboard="0"
     inkscape:deskcolor="#505050"
     inkscape:document-units="mm"
     inkscape:zoom="0.43496996"
     inkscape:cx="268.98409"
     inkscape:cy="249.44251"
     inkscape:window-width="1440"
     inkscape:window-height="876"
     inkscape:window-x="0"
     inkscape:window-y="24"
     inkscape:window-maximized="0"
     inkscape:current-layer="layer1" />
  <defs
     id="defs1">
    <inkscape:path-effect
       effect="fillet_chamfer"
       id="path-effect46"
       is_visible="true"
       lpeversion="1"
       nodesatellites_param="F,0,0,1,0,0,0,1 @ F,0,0,1,0,2.267773,0,1 @ F,0,0,1,0,2.267773,0,1 @ F,0,0,1,0,0,0,1"
       radius="0"
       unit="px"
       method="auto"
       mode="F"
       chamfer_steps="1"
       flexible="false"
       use_knot_distance="true"
       apply_no_radius="true"
       apply_with_radius="true"
       only_selected="false"
       hide_knots="false" />
    <inkscape:path-effect
       effect="bspline"
       id="path-effect45"
       is_visible="true"
       lpeversion="1.3"
       weight="33.333333"
       steps="2"
       helper_size="0"
       apply_no_weight="true"
       apply_with_weight="true"
       only_selected="false"
       uniform="false" />
    <inkscape:path-effect
       effect="fillet_chamfer"
       id="path-effect44"
       is_visible="true"
       lpeversion="1"
       nodesatellites_param="F,0,0,1,0,0,0,1 @ F,0,0,1,0,0,0,1 @ F,0,0,1,0,0,0,1 @ F,0,0,1,0,11.33985,0,1"
       radius="0"
       unit="px"
       method="auto"
       mode="F"
       chamfer_steps="1"
       flexible="false"
       use_knot_distance="true"
       apply_no_radius="true"
       apply_with_radius="true"
       only_selected="false"
       hide_knots="false" />
    <inkscape:path-effect
       effect="fillet_chamfer"
       id="path-effect42"
       is_visible="true"
       lpeversion="1"
       nodesatellites_param="F,0,0,1,0,0,0,1 @ F,0,0,1,0,0,0,1 @ F,0,0,1,0,0,0,1 @ F,0,0,1,0,0,0,1 @ F,0,0,1,0,0,0,1 @ F,0,0,1,0,0,0,1"
       radius="0"
       unit="px"
       method="auto"
       mode="F"
       chamfer_steps="1"
       flexible="false"
       use_knot_distance="true"
       apply_no_radius="true"
       apply_with_radius="true"
       only_selected="false"
       hide_knots="false" />
    <inkscape:path-effect
       effect="fillet_chamfer"
       id="path-effect40"
       is_visible="true"
       lpeversion="1"
       nodesatellites_param="F,0,0,1,0,0,0,1 @ F,0,0,1,0,0,0,1 @ F,0,0,1,0,0,0,1 @ F,0,0,1,0,0,0,1 @ F,0,0,1,0,0,0,1 @ F,0,0,1,0,0,0,1"
       radius="0"
       unit="px"
       method="auto"
       mode="F"
       chamfer_steps="1"
       flexible="false"
       use_knot_distance="true"
       apply_no_radius="true"
       apply_with_radius="true"
       only_selected="false"
       hide_knots="false" />
    <inkscape:path-effect
       effect="fillet_chamfer"
       id="path-effect39"
       is_visible="true"
       lpeversion="1"
       nodesatellites_param="F,0,0,1,0,0,0,1 @ F,0,0,1,0,0,0,1 @ F,0,0,1,0,0,0,1 @ F,0,0,1,0,11.33985,0,1"
       radius="0"
       unit="px"
       method="auto"
       mode="F"
       chamfer_steps="1"
       flexible="false"
       use_knot_distance="true"
       apply_no_radius="true"
       apply_with_radius="true"
       only_selected="false"
       hide_knots="false" />
    <inkscape:path-effect
       effect="bspline"
       id="path-effect38"
       is_visible="true"
       lpeversion="1.3"
       weight="33.333333"
       steps="2"
       helper_size="0"
       apply_no_weight="true"
       apply_with_weight="true"
       only_selected="false"
       uniform="false" />
    <inkscape:path-effect
       effect="bspline"
       id="path-effect37"
       is_visible="true"
       lpeversion="1.3"
       weight="33.333333"
       steps="2"
       helper_size="0"
       apply_no_weight="true"
       apply_with_weight="true"
       only_selected="false"
       uniform="false" />
    <inkscape:path-effect
       effect="bspline"
       id="path-effect35"
       is_visible="true"
       lpeversion="1.3"
       weight="33.333333"
       steps="2"
       helper_size="0"
       apply_no_weight="true"
       apply_with_weight="true"
       only_selected="false"
       uniform="false" />
    <inkscape:path-effect
       effect="bspline"
       id="path-effect34"
       is_visible="true"
       lpeversion="1.3"
       weight="33.333333"
       steps="2"
       helper_size="0"
       apply_no_weight="true"
       apply_with_weight="true"
       only_selected="false"
       uniform="false" />
    <inkscape:path-effect
       effect="bspline"
       id="path-effect33"
       is_visible="true"
       lpeversion="1.3"
       weight="33.333333"
       steps="2"
       helper_size="0"
       apply_no_weight="true"
       apply_with_weight="true"
       only_selected="false"
       uniform="false" />
    <inkscape:path-effect
       effect="bspline"
       id="path-effect32"
       is_visible="true"
       lpeversion="1.3"
       weight="33.333333"
       steps="2"
       helper_size="0"
       apply_no_weight="true"
       apply_with_weight="true"
       only_selected="false"
       uniform="false" />
    <inkscape:path-effect
       effect="bspline"
       id="path-effect31"
       is_visible="true"
       lpeversion="1.3"
       weight="33.333333"
       steps="2"
       helper_size="0"
       apply_no_weight="true"
       apply_with_weight="true"
       only_selected="false"
       uniform="false" />
    <inkscape:path-effect
       effect="bspline"
       id="path-effect30"
       is_visible="true"
       lpeversion="1.3"
       weight="33.333333"
       steps="2"
       helper_size="0"
       apply_no_weight="true"
       apply_with_weight="true"
       only_selected="false"
       uniform="false" />
    <inkscape:path-effect
       effect="bspline"
       id="path-effect29"
       is_visible="true"
       lpeversion="1.3"
       weight="33.333333"
       steps="2"
       helper_size="0"
       apply_no_weight="true"
       apply_with_weight="true"
       only_selected="false"
       uniform="false" />
    <inkscape:path-effect
       effect="fillet_chamfer"
       id="path-effect28"
       is_visible="true"
       lpeversion="1"
       nodesatellites_param="F,0,0,1,0,19.24774,0,1 @ F,0,0,1,0,10.800054,0,1 @ F,0,1,1,0,9.7721209,0,1 @ F,0,0,1,0,17.888443,0,1 @ F,0,0,1,0,9.1490915,0,1 @ F,0,0,1,0,0,0,1 @ F,0,0,1,0,0,0,1 @ F,0,0,1,0,6.4156528,0,1 | F,0,0,1,0,0,0,1 @ F,0,0,1,0,9.7721209,0,1 @ F,0,0,1,0,0,0,1"
       radius="0"
       unit="px"
       method="auto"
       mode="F"
       chamfer_steps="1"
       flexible="false"
       use_knot_distance="true"
       apply_no_radius="true"
       apply_with_radius="true"
       only_selected="false"
       hide_knots="false" />
    <inkscape:path-effect
       effect="fillet_chamfer"
       id="path-effect27"
       is_visible="true"
       lpeversion="1"
       nodesatellites_param="F,0,0,1,0,30.979609,0,1 @ F,0,0,1,0,7.4672922,0,1 @ F,0,0,1,0,0,0,1 @ F,0,0,1,0,0,0,1 @ F,0,0,1,0,12.58327,0,1 @ F,0,0,1,0,12.71795,0,1 @ F,0,0,1,0,12.622972,0,1 @ F,0,0,1,0,0,0,1 @ F,0,0,1,0,0,0,1 @ F,0,0,1,0,0,0,1 @ F,0,0,1,0,0,0,1 @ F,0,0,1,0,0,0,1 @ F,0,0,1,0,0,0,1 @ F,0,0,1,0,0,0,1 | F,0,0,1,0,0,0,1 @ F,0,0,1,0,0,0,1 @ F,0,0,1,0,0,0,1 @ F,0,0,1,0,0,0,1 @ F,0,0,1,0,0,0,1 @ F,0,0,1,0,0,0,1 @ F,0,0,1,0,0,0,1 @ F,0,0,1,0,0,0,1 @ F,0,0,1,0,0,0,1 @ F,0,0,1,0,0,0,1 @ F,0,0,1,0,0,0,1"
       radius="0"
       unit="px"
       method="auto"
       mode="F"
       chamfer_steps="1"
       flexible="false"
       use_knot_distance="true"
       apply_no_radius="true"
       apply_with_radius="true"
       only_selected="false"
       hide_knots="false" />
    <inkscape:path-effect
       effect="fillet_chamfer"
       id="path-effect26"
       is_visible="true"
       lpeversion="1"
       nodesatellites_param="F,0,0,1,0,15.242511,0,1 @ F,0,0,1,0,12.354429,0,1 @ F,0,0,1,0,10.308847,0,1 @ F,0,0,1,0,18.413446,0,1 @ F,0,0,1,0,10.033867,0,1 @ F,0,0,1,0,11.625148,0,1 @ F,0,0,1,0,8.5093034,0,1"
       radius="0"
       unit="px"
       method="auto"
       mode="F"
       chamfer_steps="1"
       flexible="false"
       use_knot_distance="true"
       apply_no_radius="true"
       apply_with_radius="true"
       only_selected="false"
       hide_knots="false" />
    <inkscape:path-effect
       effect="fillet_chamfer"
       id="path-effect25"
       is_visible="true"
       lpeversion="1"
       nodesatellites_param="F,0,0,1,0,0,0,1 @ F,0,0,1,0,0,0,1 @ F,0,0,1,0,0,0,1 @ F,0,0,1,0,0,0,1 @ F,0,0,1,0,0,0,1 @ F,0,0,1,0,0,0,1 @ F,0,0,1,0,0,0,1 @ F,0,0,1,0,0,0,1 | F,0,0,1,0,0,0,1 @ F,0,0,1,0,0,0,1 @ F,0,0,1,0,0,0,1"
       radius="0"
       unit="px"
       method="auto"
       mode="F"
       chamfer_steps="1"
       flexible="false"
       use_knot_distance="true"
       apply_no_radius="true"
       apply_with_radius="true"
       only_selected="false"
       hide_knots="false" />
    <inkscape:path-effect
       effect="fillet_chamfer"
       id="path-effect24"
       is_visible="true"
       lpeversion="1"
       nodesatellites_param="F,0,0,1,0,0,0,1 @ F,0,0,1,0,0,0,1 @ F,0,0,1,0,0,0,1 @ F,0,0,1,0,0,0,1 @ F,0,0,1,0,0,0,1 @ F,0,0,1,0,0,0,1 @ F,0,0,1,0,0,0,1 @ F,0,0,1,0,0,0,1 @ F,0,0,1,0,0,0,1 @ F,0,0,1,0,0,0,1 @ F,0,0,1,0,0,0,1 @ F,0,0,1,0,0,0,1 @ F,0,0,1,0,0,0,1 @ F,0,0,1,0,0,0,1 | F,0,0,1,0,0,0,1 @ F,0,0,1,0,0,0,1 @ F,0,0,1,0,0,0,1 @ F,0,0,1,0,0,0,1 @ F,0,0,1,0,0,0,1 @ F,0,0,1,0,0,0,1 @ F,0,0,1,0,0,0,1 @ F,0,0,1,0,0,0,1 @ F,0,0,1,0,0,0,1 @ F,0,0,1,0,0,0,1 @ F,0,0,1,0,0,0,1"
       radius="0"
       unit="px"
       method="auto"
       mode="F"
       chamfer_steps="1"
       flexible="false"
       use_knot_distance="true"
       apply_no_radius="true"
       apply_with_radius="true"
       only_selected="false"
       hide_knots="false" />
    <inkscape:path-effect
       effect="fillet_chamfer"
       id="path-effect23"
       is_visible="true"
       lpeversion="1"
       nodesatellites_param="F,0,0,1,0,0,0,1 @ F,0,0,1,0,0,0,1 @ F,0,0,1,0,0,0,1 @ F,0,0,1,0,0,0,1 @ F,0,0,1,0,0,0,1 @ F,0,0,1,0,0,0,1 @ F,0,0,1,0,0,0,1"
       radius="0"
       unit="px"
       method="auto"
       mode="F"
       chamfer_steps="1"
       flexible="false"
       use_knot_distance="true"
       apply_no_radius="true"
       apply_with_radius="true"
       only_selected="false"
       hide_knots="false" />
    <rect
       x="309.93942"
       y="262.77472"
       width="541.72015"
       height="184.61607"
       id="rect19" />
    <inkscape:path-effect
       effect="bspline"
       id="path-effect34-4"
       is_visible="true"
       lpeversion="1.3"
       weight="33.333333"
       steps="2"
       helper_size="0"
       apply_no_weight="true"
       apply_with_weight="true"
       only_selected="false"
       uniform="false" />
    <inkscape:path-effect
       effect="bspline"
       id="path-effect38-3"
       is_visible="true"
       lpeversion="1.3"
       weight="33.333333"
       steps="2"
       helper_size="0"
       apply_no_weight="true"
       apply_with_weight="true"
       only_selected="false"
       uniform="false" />
    <inkscape:path-effect
       effect="bspline"
       id="path-effect37-2"
       is_visible="true"
       lpeversion="1.3"
       weight="33.333333"
       steps="2"
       helper_size="0"
       apply_no_weight="true"
       apply_with_weight="true"
       only_selected="false"
       uniform="false" />
    <inkscape:path-effect
       effect="bspline"
       id="path-effect45-6"
       is_visible="true"
       lpeversion="1.3"
       weight="33.333333"
       steps="2"
       helper_size="0"
       apply_no_weight="true"
       apply_with_weight="true"
       only_selected="false"
       uniform="false" />
  </defs>
  <g
     inkscape:label="Layer 1"
     inkscape:groupmode="layer"
     id="layer1"
     transform="translate(-179.41487,-99.37942)">
    <path
       d="m 330.38322,288.13794 -57.6931,167.78324 a 17.312531,17.312531 144.48789 0 1 -16.3717,11.68304 h -5.20134 A 14.446012,14.446012 35.512108 0 1 237.45612,457.8556 L 180.12895,291.13656 a 13.140055,13.140055 125.51211 0 1 12.42598,-17.41279 13.343029,13.343029 37.593016 0 1 12.36374,9.51896 l 46.79672,140.39016 a 3.8750493,3.8750493 0 0 0 7.35238,0 L 306.3466,281.7964 a 11.806028,11.806028 144.21747 0 1 11.20018,-8.07263 l 2.55031,0 a 10.877238,10.877238 54.487892 0 1 10.28613,14.41417 z"
       id="text19"
       style="font-size:266.667px;font-family:Tahoma;-inkscape-font-specification:'Tahoma, Normal';fill:#00ffff;fill-opacity:1"
       aria-label="V"
       inkscape:path-effect="#path-effect26"
       inkscape:original-d="M 335.3396,273.72377 268.67285,467.60422 H 240.80823 L 174.14148,273.72377 h 27.6042 l 53.6459,160.9377 53.6459,-160.9377 z" />
    <path
       d="m 618.58161,467.60422 a 10.626821,10.626821 39.277697 0 1 -7.13912,-5.83867 l -56.80326,-71.24476 h -29.42712 v 64.50016 a 12.58327,12.58327 135 0 1 -12.58327,12.58327 l -0.48006,0 A 12.71795,12.71795 45 0 1 499.43083,454.88627 V 286.34674 a 12.622972,12.622972 135 0 1 12.62297,-12.62297 l 37.37709,0 c 11.11113,0 20.39933,0.60764 27.86462,1.82292 7.55209,1.21528 14.71356,4.03646 21.4844,8.46355 6.77084,4.34029 12.10939,9.93925 16.01564,16.7969 3.99307,6.85765 5.9896,15.3646 5.9896,25.52086 0,14.23613 -3.60244,26.12851 -10.80731,35.67713 -7.20487,9.54862 -17.01391,16.62328 -29.42712,21.22398 l 49.39707,60.39492 a 14.68378,14.68378 115.36011 0 1 -11.36618,23.98019 z M 593.83199,328.28113 c 0,-5.64237 -0.99827,-10.63369 -2.9948,-14.97398 -1.99653,-4.42709 -5.07813,-8.02952 -9.2448,-10.8073 -3.64584,-2.43056 -7.89932,-4.12327 -12.76043,-5.07813 -4.86112,-1.04167 -10.89411,-1.5625 -18.09898,-1.5625 h -25.52087 v 73.17717 h 22.65628 c 7.37848,0 14.01911,-0.65104 19.9219,-1.95313 5.90279,-1.30209 10.93751,-3.99306 15.10418,-8.07293 3.73265,-3.64583 6.46703,-7.98611 8.20314,-13.02084 1.82292,-5.03473 2.73438,-10.93752 2.73438,-17.70836 z"
       id="text21"
       style="font-size:266.667px;font-family:Tahoma;-inkscape-font-specification:'Tahoma, Normal';fill:#00ffff;fill-opacity:1"
       aria-label="R"
       inkscape:path-effect="#path-effect27"
       inkscape:original-d="m 649.56122,467.60422 h -33.46358 l -61.45841,-77.08343 h -29.42712 v 77.08343 H 499.43083 V 273.72377 h 50.00006 q 16.66669,0 27.86462,1.82292 11.32814,1.82292 21.4844,8.46355 10.15626,6.51043 16.01564,16.7969 5.9896,10.28647 5.9896,25.52086 0,21.3542 -10.80731,35.67713 -10.8073,14.32293 -29.42712,21.22398 z M 593.83199,328.28113 q 0,-8.46355 -2.9948,-14.97398 -2.99479,-6.64063 -9.2448,-10.8073 -5.46876,-3.64584 -12.76043,-5.07813 -7.29168,-1.5625 -18.09898,-1.5625 h -25.52087 v 73.17717 h 22.65628 q 11.06772,0 19.9219,-1.95313 8.85418,-1.95313 15.10418,-8.07293 5.59897,-5.46875 8.20314,-13.02084 2.73438,-7.5521 2.73438,-17.70836 z" />
    <path
       d="m 671.07492,449.36514 55.76525,-165.40728 a 15.03844,15.03844 144.31548 0 1 14.25036,-10.23409 h 11.19871 a 13.607104,13.607104 35.684516 0 1 12.89403,9.26002 l 56.5279,167.66942 a 12.846821,12.846821 125.68452 0 1 -12.17359,16.95101 h -0.17605 a 12.587847,12.587847 36.010382 0 1 -11.97316,-8.70233 L 782.6343,413.43748 h -74.08863 l -15.59781,48.06437 a 8.827026,8.827026 143.98962 0 1 -8.39599,6.10237 h -0.37831 a 13.823018,13.823018 54.315484 0 1 -13.09864,-18.23908 z m 104.39791,-57.93289 -26.9054,-82.11996 a 3.1947305,3.1947305 179.96313 0 0 -6.07315,0.004 l -26.78715,82.11605 z"
       id="text22"
       style="font-size:266.667px;font-family:Tahoma;-inkscape-font-specification:'Tahoma, Normal';fill:#00ffff;fill-opacity:1"
       aria-label="A"
       inkscape:path-effect="#path-effect28"
       inkscape:original-d="m 664.92582,467.60422 65.36466,-193.88045 h 31.77088 l 65.36466,193.88045 H 800.21244 L 782.6343,413.43748 h -74.08863 l -17.57815,54.16674 z m 110.54701,-76.17197 -29.94795,-91.40636 -29.81775,91.40636 z"
       transform="translate(-20.211647)" />
    <path
       d="m 399.63073,418.61324 h -66.97605 q 0,8.38218 2.52279,14.64847 2.5228,6.18491 6.91734,10.17255 4.23177,3.90625 10.00978,5.85938 5.85939,1.95313 12.8581,1.95313 9.27736,0 18.63611,-3.66211 9.44012,-3.7435 13.42776,-7.32424 h 0.8138 v 16.68298 q -7.73113,3.25521 -15.78779,5.45248 -8.05666,2.19727 -16.92712,2.19727 -22.62374,0 -35.31908,-12.20705 -12.69534,-12.28844 -12.69534,-34.8308 0,-22.29823 12.12568,-35.40047 12.20705,-13.10224 32.06386,-13.10224 18.39197,0 28.32037,10.74221 10.00979,10.74221 10.00979,30.51764 z m -14.89261,-11.71877 q -0.0814,-12.0443 -6.10353,-18.63611 -5.94076,-6.59181 -18.14782,-6.59181 -12.28844,0 -19.61267,7.24286 -7.24285,7.24285 -8.21942,17.98506 z m 85.28663,54.76899 q -4.31315,1.13933 -9.44012,1.87175 -5.04558,0.73242 -9.03322,0.73242 -13.91604,0 -21.1589,-7.48699 -7.24285,-7.487 -7.24285,-24.00721 v -48.33994 h -10.33531 v -12.8581 h 10.33531 v -26.1231 h 15.29951 v 26.1231 h 31.57558 v 12.8581 h -31.57558 v 41.42261 q 0,7.16147 0.32552,11.23049 0.32552,3.98764 2.27865,7.48699 1.79037,3.25522 4.88282,4.80144 3.17384,1.46485 9.60289,1.46485 3.7435,0 7.81251,-1.05794 4.06902,-1.13933 5.85939,-1.87175 h 0.8138 z"
       id="text23"
       style="font-size:166.667px;font-family:'Segoe Script';-inkscape-font-specification:'Segoe Script, Normal';fill:#daffff"
       aria-label="et" />
    <path
       style="fill:none;fill-opacity:1;stroke:#ffa800;stroke-width:22.6772;stroke-dasharray:none;stroke-opacity:1"
       d="m 726.47824,261.59571 c 0,-10.79624 0,-21.59249 0,-31.52377 0,-9.93127 0,-18.99722 -4.35313,-23.53029 -4.35313,-4.53306 -13.05905,-4.53306 -21.76514,-4.53306"
       id="path34"
       inkscape:path-effect="#path-effect34"
       inkscape:original-d="m 726.47824,261.59571 c 0,-10.79624 0,-21.59249 0,-32.38873 0,-9.06631 0,-18.13226 0,-27.19839 -8.70626,0 -17.41218,0 -26.11827,0"
       transform="translate(31.227105,-0.22064257)"
       sodipodi:nodetypes="cscc" />
    <path
       style="fill:none;fill-opacity:1;stroke:#ffa800;stroke-width:22.6772;stroke-dasharray:none;stroke-opacity:1"
       d="m 225.09703,261.37507 v -29.50242 c 0,-11.95262 0,-21.01857 4.35313,-25.55164 4.35313,-4.53306 13.05905,-4.53306 21.76514,-4.53306"
       id="path34-3"
       sodipodi:nodetypes="cssc" />
    <ellipse
       style="fill:none;fill-opacity:1;stroke:#ffa800;stroke-width:17.8332;stroke-dasharray:none;stroke-opacity:1"
       id="path36"
       ry="18.544907"
       rx="18.911871"
       cy="126.84093"
       cx="491.40118" />
    <path
       style="color:#000000;fill:#ffa800;-inkscape-stroke:none"
       d="m 517.52601,121.7157 -16.27992,11.93469 c 6.87555,9.15383 15.25076,20.693 30.15625,26.61328 14.90536,5.92023 31.8781,5.37695 48.04883,5.37695 v -22.67773 c -16.17073,0 -31.53649,-0.54179 -39.67773,-3.77539 -8.14111,-3.23355 -15.37189,-8.31797 -22.24743,-17.4718 z"
       id="path37"
       transform="translate(0,1.2815979e-4)"
       inkscape:path-effect="#path-effect40"
       inkscape:original-d="m 517.52601,121.7157 -16.27992,11.93469 c 6.87555,9.15383 15.25076,20.693 30.15625,26.61328 14.90536,5.92023 31.8781,5.37695 48.04883,5.37695 v -22.67773 c -16.17073,0 -31.53649,-0.54179 -39.67773,-3.77539 -8.14111,-3.23355 -15.37189,-8.31797 -22.24743,-17.4718 z"
       sodipodi:nodetypes="ccsccsc" />
    <path
       style="color:#000000;fill:#ffa800;-inkscape-stroke:none"
       d="m 568.11328,154.30273 v 36.14454 h 22.67774 v -24.80469 a 11.33985,11.33985 45 0 0 -11.33985,-11.33985 z"
       id="path38"
       transform="matrix(1,0,0,1.5780129,0,-100.64855)"
       inkscape:path-effect="#path-effect39"
       inkscape:original-d="m 568.11328,154.30273 v 36.14454 h 22.67774 v -36.14454 z" />
    <path
       style="color:#000000;fill:#ffa800;-inkscape-stroke:none"
       d="m 517.52601,121.7157 -16.27992,11.93469 c 6.87555,9.15383 15.25076,20.693 30.15625,26.61328 14.90536,5.92023 31.8781,5.37695 48.04883,5.37695 v -22.67773 c -16.17073,0 -31.53649,-0.54179 -39.67773,-3.77539 -8.14111,-3.23355 -15.37189,-8.31797 -22.24743,-17.4718 z"
       id="path40"
       transform="matrix(-1,0,0,1,982.21075,1.2815979e-4)"
       inkscape:path-effect="#path-effect42"
       inkscape:original-d="m 517.52601,121.7157 -16.27992,11.93469 c 6.87555,9.15383 15.25076,20.693 30.15625,26.61328 14.90536,5.92023 31.8781,5.37695 48.04883,5.37695 v -22.67773 c -16.17073,0 -31.53649,-0.54179 -39.67773,-3.77539 -8.14111,-3.23355 -15.37189,-8.31797 -22.24743,-17.4718 z"
       sodipodi:nodetypes="ccsccsc" />
    <path
       style="color:#000000;fill:#ffa800;-inkscape-stroke:none"
       d="m 568.11328,154.30273 v 36.14454 h 22.67774 v -24.80469 a 11.33985,11.33985 45 0 0 -11.33985,-11.33985 z"
       id="path41"
       transform="matrix(-1,0,0,1.5780128,982.21075,-100.64853)"
       inkscape:path-effect="#path-effect44"
       inkscape:original-d="m 568.11328,154.30273 v 36.14454 h 22.67774 v -36.14454 z" />
    <path
       style="fill:none;fill-opacity:1;stroke:#ffa800;stroke-width:22.6772;stroke-dasharray:none;stroke-opacity:1"
       d="m 251.2153,201.78795 c 160.12393,0 320.24785,-1e-5 480.37178,-1e-5"
       id="path44"
       inkscape:path-effect="#path-effect45"
       inkscape:original-d="m 251.2153,201.78795 c 160.12393,-1e-5 320.24785,-1e-5 480.37178,-1e-5"
       transform="matrix(0.34607838,0,0,1,160.911,0)" />
    <path
       style="color:#000000;fill:#ffa800;-inkscape-stroke:none"
       d="m 251.21484,190.44922 0,20.40996 a 2.267773,2.267773 45 0 0 2.26777,2.26777 h 475.83751 a 2.267773,2.267773 135 0 0 2.26777,-2.26777 v -20.40996 z"
       id="path44-4"
       transform="matrix(0.34590253,0,0,1,481.21727,0)"
       inkscape:path-effect="#path-effect46"
       inkscape:original-d="m 251.21484,190.44922 v 22.67773 h 480.37305 v -22.67773 z" />
  </g>
</svg>
